HIERARCHY
ROOT Hips
{
	OFFSET 0.000000 0.000000 0.000000
	CHANNELS 6 Xposition Yposition Zposition Xrotation Yrotation Zrotation
	JOINT LeftUpLeg_virtual
	{
		OFFSET 0.000000 0.000000 0.000000
		CHANNELS 3 Xrotation Yrotation Zrotation
		JOINT LeftUpLeg
		{
			OFFSET 13.026900 -6.336304 -1.092800
			CHANNELS 3 Xrotation Yrotation Zrotation
			JOINT LeftLeg
			{
				OFFSET 0.524474 -46.096886 9.782700
				CHANNELS 3 Xrotation Yrotation Zrotation
				JOINT LeftFoot
				{
					OFFSET -0.524474 -53.427422 -12.948200
					CHANNELS 3 Xrotation Yrotation Zrotation
					JOINT LeftToeBase
					{
						OFFSET 0.192200 -14.009700 16.364100
						CHANNELS 3 Xrotation Yrotation Zrotation
						JOINT LeftToe_End
						{
							OFFSET -1.784700 -0.561700 9.474800
							CHANNELS 3 Xrotation Yrotation Zrotation
							End Site
							{
								OFFSET 0 0 0
							}
						}
					}
				}
			}
		}
	}
	JOINT RightUpLeg_virtual
	{
		OFFSET 0.000000 0.000000 0.000000
		CHANNELS 3 Xrotation Yrotation Zrotation
		JOINT RightUpLeg
		{
			OFFSET -12.883000 -6.336304 -1.092800
			CHANNELS 3 Xrotation Yrotation Zrotation
			JOINT RightLeg
			{
				OFFSET -0.524587 -46.096825 9.782800
				CHANNELS 3 Xrotation Yrotation Zrotation
				JOINT RightFoot
				{
					OFFSET 0.524587 -53.427383 -12.948300
					CHANNELS 3 Xrotation Yrotation Zrotation
					JOINT RightToeBase
					{
						OFFSET -0.192200 -14.009700 16.364100
						CHANNELS 3 Xrotation Yrotation Zrotation
						JOINT RightToe_End
						{
							OFFSET 1.784700 -0.561700 9.474800
							CHANNELS 3 Xrotation Yrotation Zrotation
							End Site
							{
								OFFSET 0 0 0
							}
						}
					}
				}
			}
		}
	}
	JOINT Spine_virtual
	{
		OFFSET 0.000000 0.000000 0.000000
		CHANNELS 3 Xrotation Yrotation Zrotation
		JOINT Spine
		{
			OFFSET 0.072000 7.257294 -0.789700
			CHANNELS 3 Xrotation Yrotation Zrotation
			JOINT Spine1
			{
				OFFSET 0.000000 12.508769 -0.658067
				CHANNELS 3 Xrotation Yrotation Zrotation
				JOINT Spine1_split
				{
					OFFSET 0.000000 12.508769 -0.658067
					CHANNELS 3 Xrotation Yrotation Zrotation
					JOINT Spine2
					{
						OFFSET 0.000000 12.508769 -0.658067
						CHANNELS 3 Xrotation Yrotation Zrotation
						JOINT Neck_virtual
						{
							OFFSET 0.000000 0.000000 0.000000
							CHANNELS 3 Xrotation Yrotation Zrotation
							JOINT Neck
							{
								OFFSET 0.000000 14.033295 7.520400
								CHANNELS 3 Xrotation Yrotation Zrotation
								JOINT Head
								{
									OFFSET 0.000000 8.198502 5.703100
									CHANNELS 3 Xrotation Yrotation Zrotation
									JOINT HeadTop_End
									{
										OFFSET 0.000000 17.760803 13.332701
										CHANNELS 3 Xrotation Yrotation Zrotation
										End Site
										{
											OFFSET 0 0 0
										}
									}
								}
							}
						}
						JOINT LeftShoulder_virtual
						{
							OFFSET 0.000000 0.000000 0.000000
							CHANNELS 3 Xrotation Yrotation Zrotation
							JOINT LeftShoulder
							{
								OFFSET 6.292450 5.785301 -0.669000
								CHANNELS 3 Xrotation Yrotation Zrotation
								JOINT LeftShoulder_split
								{
									OFFSET 6.292450 5.785301 -0.669000
									CHANNELS 3 Xrotation Yrotation Zrotation
									JOINT LeftArm
									{
										OFFSET 13.907140 -6.093903 1.965100
										CHANNELS 3 Xrotation Yrotation Zrotation
										JOINT LeftForeArm
										{
											OFFSET 34.140198 0.000000 0.000000
											CHANNELS 3 Xrotation Yrotation Zrotation
											JOINT LeftHand
											{
												OFFSET 40.960209 0.000000 0.000000
												CHANNELS 3 Xrotation Yrotation Zrotation
												End Site
												{
													OFFSET 0 0 0
												}
											}
										}
									}
								}
							}
						}
						JOINT RightShoulder_virtual
						{
							OFFSET 0.000000 0.000000 0.000000
							CHANNELS 3 Xrotation Yrotation Zrotation
							JOINT RightShoulder
							{
								OFFSET -6.292450 5.785301 -0.669000
								CHANNELS 3 Xrotation Yrotation Zrotation
								JOINT RightShoulder_split
								{
									OFFSET -6.292450 5.785301 -0.669000
									CHANNELS 3 Xrotation Yrotation Zrotation
									JOINT RightArm
									{
										OFFSET -13.907140 -6.093903 1.965100
										CHANNELS 3 Xrotation Yrotation Zrotation
										JOINT RightForeArm
										{
											OFFSET -34.140198 0.000000 0.000000
											CHANNELS 3 Xrotation Yrotation Zrotation
											JOINT RightHand
											{
												OFFSET -40.960209 0.000000 0.000000
												CHANNELS 3 Xrotation Yrotation Zrotation
												End Site
												{
													OFFSET 0 0 0
												}
											}
										}
									}
								}
							}
						}
					}
				}
			}
		}
	}
}
MOTION
Frames: 9
Frame Time: 0.03333333
-289.162018 115.735657 -12.683811 0.000000 0.000000 0.000000 2.918227 0.320093 0.149292 -10.259740 17.976834 14.064719 14.495528 -7.069248 0.464703 -6.845566 -14.219732 -3.951953 -2.758720 -0.580539 1.354135 0.000000 0.000000 0.000000 1.800869 2.688829 -0.369087 -4.695011 -4.631370 -15.924075 16.526461 -0.547144 6.471174 -1.271437 -2.365061 5.476186 -8.540802 -0.064740 -0.289795 0.000000 0.000000 0.000000 3.957053 0.630956 -0.776798 0.765647 1.544616 1.499834 2.230530 0.893376 0.417389 0.807055 -1.989800 0.235263 0.000000 0.000000 0.000000 1.808688 0.535542 0.491291 3.614433 -0.517691 -1.464359 -7.277508 -6.284596 1.585874 0.000000 0.000000 0.000000 0.706293 0.433209 0.161093 0.812301 -0.918640 -10.250801 -2.285359 -1.016904 0.198808 8.188137 -17.147356 -62.787149 -0.320528 -21.985301 0.325048 0.000000 0.000000 0.000000 1.390214 0.566319 0.882401 0.702553 5.275120 13.547834 1.474358 2.895293 -3.076360 12.319867 8.548923 63.689786 1.028594 31.396751 0.314785 0.000000 0.000000 0.000000 
-288.992920 115.668297 -12.624004 0.000000 0.000000 0.000000 2.785593 0.519538 0.055784 -10.542238 18.064442 13.990195 14.637521 -7.207205 0.765772 -6.384723 -14.296575 -3.566166 -2.811796 -0.585921 1.259707 0.000000 0.000000 0.000000 1.706404 2.727592 -0.465652 -4.756270 -4.564773 -15.766173 16.710377 -0.425271 6.426383 -1.536271 -2.389066 5.456187 -8.318195 -0.015652 -0.419089 0.000000 0.000000 0.000000 3.840585 0.657905 -0.791518 0.788666 1.574037 1.624919 2.295997 0.965456 0.438718 0.827623 -1.846451 0.246720 0.000000 0.000000 0.000000 1.688374 0.562973 0.541223 3.435691 -0.550107 -1.616764 -7.733841 -6.665586 1.684922 0.000000 0.000000 0.000000 0.700283 0.493426 0.172649 0.864315 -0.132680 -9.847136 -2.239510 -1.189485 0.375158 8.090872 -17.352618 -62.314138 -0.639608 -25.080743 0.214460 0.000000 0.000000 0.000000 1.442588 0.632995 0.892028 0.738668 5.128202 13.272038 1.347651 2.898229 -2.917713 12.851637 9.905904 62.002511 0.880794 34.418775 0.384203 0.000000 0.000000 0.000000 
-288.781738 115.682838 -12.556156 0.000000 0.000000 0.000000 2.693034 0.667568 0.023288 -10.887534 17.987334 13.837436 14.885241 -7.315119 1.077357 -5.569552 -14.502370 -3.288286 -2.971095 -0.598998 1.201976 0.000000 0.000000 0.000000 1.624131 2.738559 -0.482055 -4.852634 -4.493175 -15.566406 16.848714 -0.320247 6.287331 -1.824699 -2.384708 5.543691 -7.947749 0.039304 -0.506159 0.000000 0.000000 0.000000 3.797574 0.659202 -0.740354 0.727116 1.638353 1.725190 2.354031 1.089429 0.465560 0.902269 -1.735446 0.264400 0.000000 0.000000 0.000000 1.554846 0.649614 0.596228 3.430290 -0.595107 -1.751278 -8.172484 -7.043276 1.797926 0.000000 0.000000 0.000000 0.715748 0.610954 0.222187 0.874067 0.823268 -9.112885 -2.078821 -1.274625 0.476916 7.769793 -16.869345 -62.001698 -1.112767 -31.106498 -0.053598 0.000000 0.000000 0.000000 1.472014 0.749495 0.900177 0.797460 4.795158 12.718033 1.373024 2.930000 -2.612892 13.363442 11.004178 59.993957 0.745943 40.034618 0.365090 0.000000 0.000000 0.000000 
-288.578339 115.786278 -12.577969 0.000000 0.000000 0.000000 2.687133 0.841555 0.070854 -11.345545 17.720716 13.601628 15.294545 -7.320396 1.388574 -4.585591 -14.761287 -3.009163 -3.117246 -0.635372 1.240801 0.000000 0.000000 0.000000 1.596485 2.693759 -0.429749 -4.968642 -4.394798 -15.311116 16.847252 -0.231747 6.041616 -1.977565 -2.346309 5.843778 -7.510368 0.095782 -0.550618 0.000000 0.000000 0.000000 3.899250 0.624569 -0.623720 0.558619 1.714235 1.798702 2.388015 1.252907 0.475117 1.015855 -1.602019 0.250777 0.000000 0.000000 0.000000 1.441459 0.776282 0.625007 3.629239 -0.624069 -1.847120 -8.565058 -7.314872 1.955948 0.000000 0.000000 0.000000 0.745596 0.764224 0.284802 0.825578 1.824320 -8.185247 -1.858690 -1.232985 0.627747 6.887352 -15.681657 -61.985415 -1.638984 -39.633703 -0.499066 0.000000 0.000000 0.000000 1.471851 0.902572 0.884388 0.855853 4.290642 11.857502 1.464807 2.955676 -2.200067 13.476715 11.537941 57.985717 0.636386 48.055695 0.244791 0.000000 0.000000 0.000000 
-288.394562 115.919754 -12.753620 0.000000 0.000000 0.000000 2.825265 1.055508 0.159292 -12.012801 17.310382 13.274526 15.950753 -7.242119 1.647033 -3.716874 -14.958350 -2.650156 -3.154046 -0.710721 1.383391 0.000000 0.000000 0.000000 1.712591 2.623874 -0.321345 -5.238906 -4.307921 -15.067867 16.705140 -0.129283 5.706127 -1.978412 -2.266437 6.444326 -7.054547 0.159430 -0.557609 0.000000 0.000000 0.000000 4.178149 0.587626 -0.441218 0.296470 1.771331 1.831223 2.403513 1.433994 0.442032 1.203150 -1.582290 0.322099 0.000000 0.000000 0.000000 1.383215 0.921188 0.611887 3.931349 -0.615429 -1.882721 -8.962320 -7.369256 2.180172 0.000000 0.000000 0.000000 0.773879 0.928235 0.315742 0.725185 2.729131 -7.216799 -1.740194 -1.078680 0.763885 5.073016 -14.017201 -62.263752 -2.154511 -49.176030 -1.108928 0.000000 0.000000 0.000000 1.455133 1.064963 0.828383 0.890459 3.667163 10.781664 1.572848 2.897685 -1.781548 12.747798 11.373842 56.259005 0.516482 57.538627 0.055038 0.000000 0.000000 0.000000 
-288.263733 115.939316 -13.107265 0.000000 0.000000 0.000000 3.192331 1.406413 0.263353 -13.228448 16.819465 13.010377 16.988627 -7.194248 1.795561 -3.173171 -15.093227 -2.321212 -3.162215 -0.815027 1.630933 0.000000 0.000000 0.000000 2.032370 2.663868 -0.201943 -5.903237 -4.247077 -14.886561 16.592099 -0.007377 5.326918 -1.977645 -2.171383 7.245851 -6.576334 0.232590 -0.546379 0.000000 0.000000 0.000000 4.634394 0.558729 -0.211778 0.007323 1.799449 1.811094 2.410380 1.616501 0.363881 1.388133 -1.718307 0.319429 0.000000 0.000000 0.000000 1.381451 1.062562 0.544776 4.193937 -0.573454 -1.867125 -9.446457 -7.171317 2.463272 0.000000 0.000000 0.000000 0.830087 1.082465 0.292474 0.613210 3.345677 -6.394259 -1.723844 -0.893041 0.870463 2.156524 -12.387806 -62.636967 -2.594264 -57.744899 -1.818517 0.000000 0.000000 0.000000 1.435761 1.213669 0.728960 0.881030 3.085406 9.604784 1.653837 2.941552 -1.478647 10.940846 10.668373 54.886820 0.313993 67.113193 -0.117695 0.000000 0.000000 0.000000 
-288.174255 115.653091 -13.808521 0.000000 0.000000 0.000000 3.798916 1.893164 0.375124 -15.408596 16.196228 12.940716 18.648985 -7.337519 1.783650 -2.806552 -15.136374 -2.257145 -3.242432 -0.921912 1.929208 0.000000 0.000000 0.000000 2.637478 2.886767 -0.120749 -7.337211 -4.274304 -14.816291 17.047411 0.131238 4.979764 -2.244678 -2.129002 7.920506 -5.894517 0.322971 -0.515921 0.000000 0.000000 0.000000 5.281281 0.552091 0.036752 -0.193751 1.797215 1.742260 2.439654 1.788805 0.247262 1.430149 -1.908000 0.372697 0.000000 0.000000 0.000000 1.451798 1.190974 0.436621 4.219358 -0.535896 -1.816422 -10.175351 -6.811200 2.778289 0.000000 0.000000 0.000000 0.930986 1.213318 0.214077 0.502921 3.548076 -5.814560 -1.774943 -0.836921 0.966607 -1.932739 -11.203726 -62.909710 -2.872005 -63.729968 -2.441336 0.000000 0.000000 0.000000 1.457057 1.343003 0.598085 0.833602 2.708513 8.547778 1.699508 3.109906 -1.337896 7.894976 9.704869 53.739447 -0.051544 75.502769 -0.121694 0.000000 0.000000 0.000000 
-288.093048 114.899055 -14.766865 0.000000 0.000000 0.000000 4.687949 2.487744 0.478284 -18.766631 15.372903 13.108762 21.240333 -7.662922 1.559064 -2.533861 -15.001037 -2.386311 -3.446754 -1.005152 2.195512 0.000000 0.000000 0.000000 3.595038 3.302333 -0.046337 -9.886886 -4.359980 -14.926321 18.563932 0.253302 4.730614 -2.959006 -2.182106 8.235482 -4.998711 0.427604 -0.477526 0.000000 0.000000 0.000000 6.109941 0.579850 0.307900 -0.223706 1.770225 1.615447 2.519745 1.952956 0.111692 1.288084 -2.147393 0.388803 0.000000 0.000000 0.000000 1.597673 1.304387 0.311666 3.875886 -0.513863 -1.748772 -11.284109 -6.394159 3.068066 0.000000 0.000000 0.000000 1.091138 1.325662 0.097470 0.421092 3.289433 -5.472812 -2.010036 -0.967284 0.970249 -7.144749 -10.636270 -62.862862 -2.889605 -66.756438 -2.774101 0.000000 0.000000 0.000000 1.535308 1.441417 0.458552 0.748151 2.671125 7.807729 1.733406 3.384751 -1.328762 3.659993 8.856223 52.578506 -0.974664 82.003579 0.478488 0.000000 0.000000 0.000000 
-288.062317 113.607811 -15.893078 0.000000 0.000000 0.000000 5.881718 2.975997 0.602882 -23.331943 14.306203 13.484489 24.965424 -8.013300 1.176904 -2.470463 -14.541377 -2.457081 -3.608550 -1.036111 2.334392 0.000000 0.000000 0.000000 4.870550 3.828581 0.031544 -13.811604 -4.351249 -15.251988 21.724040 0.390451 4.624184 -4.003364 -2.322945 8.222753 -4.443859 0.541372 -0.447124 0.000000 0.000000 0.000000 7.157988 0.674319 0.557778 -0.023718 1.732327 1.434537 2.665800 2.108509 -0.030374 1.012830 -2.221668 0.297892 0.000000 0.000000 0.000000 1.819422 1.405325 0.189378 3.126688 -0.559546 -1.688770 -12.858378 -6.025968 3.286706 0.000000 0.000000 0.000000 1.314404 1.429628 -0.028062 0.368526 2.506924 -5.299245 -2.328904 -1.311695 0.970148 -13.147622 -10.578779 -62.372058 -2.660141 -67.508032 -2.774814 0.000000 0.000000 0.000000 1.701333 1.530752 0.330530 0.640799 3.078222 7.513329 1.639205 3.613503 -1.309507 -1.645010 8.466832 51.217307 -3.764623 86.473296 3.083557 0.000000 0.000000 0.000000 
